%TF.GenerationSoftware,KiCad,Pcbnew,10.0.0*%
%TF.CreationDate,2026-04-30T16:56:31+10:00*%
%TF.ProjectId,Macro pad,4d616372-6f20-4706-9164-2e6b69636164,rev?*%
%TF.SameCoordinates,Original*%
%TF.FileFunction,Legend,Bot*%
%TF.FilePolarity,Positive*%
%FSLAX46Y46*%
G04 Gerber Fmt 4.6, Leading zero omitted, Abs format (unit mm)*
G04 Created by KiCad (PCBNEW 10.0.0) date 2026-04-30 16:56:31*
%MOMM*%
%LPD*%
G01*
G04 APERTURE LIST*
%ADD10C,0.106680*%
%ADD11C,0.100000*%
%ADD12C,0.127000*%
%ADD13C,0.504000*%
G04 APERTURE END LIST*
D10*
X149466549Y-68900391D02*
X149466549Y-69533698D01*
X149466549Y-69533698D02*
X149429296Y-69608204D01*
X149429296Y-69608204D02*
X149392042Y-69645458D01*
X149392042Y-69645458D02*
X149317536Y-69682711D01*
X149317536Y-69682711D02*
X149168522Y-69682711D01*
X149168522Y-69682711D02*
X149094016Y-69645458D01*
X149094016Y-69645458D02*
X149056762Y-69608204D01*
X149056762Y-69608204D02*
X149019509Y-69533698D01*
X149019509Y-69533698D02*
X149019509Y-68900391D01*
X148684229Y-68974898D02*
X148646976Y-68937644D01*
X148646976Y-68937644D02*
X148572469Y-68900391D01*
X148572469Y-68900391D02*
X148386203Y-68900391D01*
X148386203Y-68900391D02*
X148311696Y-68937644D01*
X148311696Y-68937644D02*
X148274443Y-68974898D01*
X148274443Y-68974898D02*
X148237189Y-69049404D01*
X148237189Y-69049404D02*
X148237189Y-69123911D01*
X148237189Y-69123911D02*
X148274443Y-69235671D01*
X148274443Y-69235671D02*
X148721483Y-69682711D01*
X148721483Y-69682711D02*
X148237189Y-69682711D01*
%TO.C,U2*%
D11*
X156835000Y-89133000D02*
X156835000Y-71988000D01*
X154930000Y-91038000D02*
X140960000Y-91038000D01*
D12*
X152440000Y-70083000D02*
X152436272Y-69072728D01*
X151936272Y-68573000D02*
X143941000Y-68573000D01*
X143441000Y-69073000D02*
X143441000Y-70083000D01*
D11*
X140960000Y-70083000D02*
X154930000Y-70083000D01*
X139055000Y-89133000D02*
X139055000Y-71988000D01*
X154930000Y-70079000D02*
G75*
G02*
X156835000Y-71984000I-1J-1905001D01*
G01*
X156835000Y-89133000D02*
G75*
G02*
X154930000Y-91038000I-1905000J0D01*
G01*
D12*
X151936272Y-68573000D02*
G75*
G02*
X152436270Y-69072728I-22J-500020D01*
G01*
X143441000Y-69073000D02*
G75*
G02*
X143941000Y-68573000I500000J0D01*
G01*
D11*
X139055000Y-71988000D02*
G75*
G02*
X140960000Y-70083000I1905000J0D01*
G01*
X140960000Y-91038000D02*
G75*
G02*
X139055000Y-89133000I0J1905000D01*
G01*
D13*
X157297000Y-70499000D02*
G75*
G02*
X156793000Y-70499000I-252000J0D01*
G01*
X156793000Y-70499000D02*
G75*
G02*
X157297000Y-70499000I252000J0D01*
G01*
X156023000Y-71216000D02*
G75*
G02*
X155519000Y-71216000I-252000J0D01*
G01*
X155519000Y-71216000D02*
G75*
G02*
X156023000Y-71216000I252000J0D01*
G01*
%TD*%
M02*
